<svg xmlns="http://www.w3.org/2000/svg">

<!-- Arrow Up -->
<symbol id="arrow-up">
  <path d="M12.7618 0.856683C12.6826 0.310102 12.1753 -0.0688157 11.6288 0.0103471L2.7217 1.30039C2.17512 1.37955 1.7962 1.88681 1.87536 2.4334C1.95453 2.97998 2.46179 3.3589 3.00837 3.27973L10.9258 2.13303L12.0725 10.0504C12.1516 10.597 12.6589 10.9759 13.2055 10.8968C13.7521 10.8176 14.131 10.3103 14.0518 9.76375L12.7618 0.856683ZM1.80116 16.0193L12.5733 1.59847L10.9709 0.401571L0.19884 14.8224L1.80116 16.0193Z" fill="#0C0D0D"/>
</symbol>

<!-- Arrow Down -->
<symbol id="arrow-down" xmlns="http://www.w3.org/2000/svg" width="15" height="16" viewBox="0 0 15 16" fill="none">
  <path d="M1.60045 14.75C1.66528 15.2984 2.16245 15.6905 2.71092 15.6257L11.6487 14.5692C12.1972 14.5044 12.5892 14.0072 12.5244 13.4588C12.4596 12.9103 11.9624 12.5182 11.4139 12.5831L3.46924 13.5221L2.53019 5.57742C2.46536 5.02895 1.96819 4.63689 1.41972 4.70172C0.871256 4.76654 0.479189 5.26372 0.544017 5.81218L1.60045 14.75ZM12.5623 0.376388L1.80832 14.0134L3.37876 15.2518L14.1328 1.61482L12.5623 0.376388Z" fill="#0C0D0D"/>
</symbol>

<!-- Show Eye -->
<symbol id="show-eye">
  <path d="M0.833252 10C0.833252 10 4.16659 3.33337 9.99992 3.33337C15.8333 3.33337 19.1666 10 19.1666 10C19.1666 10 15.8333 16.6667 9.99992 16.6667C4.16659 16.6667 0.833252 10 0.833252 10Z" stroke="#FAFAFA" stroke-width="1.5" stroke-linecap="round" stroke-linejoin="round"/>
  <path d="M10 12.5C11.3807 12.5 12.5 11.3807 12.5 10C12.5 8.61929 11.3807 7.5 10 7.5C8.61929 7.5 7.5 8.61929 7.5 10C7.5 11.3807 8.61929 12.5 10 12.5Z" stroke="#FAFAFA" stroke-width="1.5" stroke-linecap="round" stroke-linejoin="round"/>
</symbol>

<!-- Close Eye -->
<symbol id="close-eye">
  <g clip-path="url(#clip0_81_149)">
    <path d="M14.9499 14.9499C13.5254 16.0358 11.7908 16.6373 9.99992 16.6666C4.16659 16.6666 0.833252 9.99994 0.833252 9.99994C1.86983 8.06819 3.30753 6.38045 5.04992 5.04994M8.24992 3.53327C8.82353 3.39901 9.41081 3.33189 9.99992 3.33327C15.8333 3.33327 19.1666 9.99994 19.1666 9.99994C18.6607 10.9463 18.0575 11.8372 17.3666 12.6583M11.7666 11.7666C11.5377 12.0122 11.2617 12.2092 10.955 12.3459C10.6484 12.4825 10.3173 12.556 9.98166 12.5619C9.64599 12.5678 9.31256 12.5061 9.00126 12.3803C8.68997 12.2546 8.40719 12.0675 8.16979 11.8301C7.9324 11.5927 7.74525 11.3099 7.61951 10.9986C7.49377 10.6873 7.43202 10.3539 7.43795 10.0182C7.44387 9.68252 7.51734 9.35148 7.65398 9.04481C7.79062 8.73815 7.98763 8.46215 8.23325 8.23327" stroke="#FAFAFA" stroke-width="1.5" stroke-linecap="round" stroke-linejoin="round"/>
    <path d="M0.833252 0.833374L19.1666 19.1667" stroke="#FAFAFA" stroke-width="1.5" stroke-linecap="round" stroke-linejoin="round"/>
  </g>
  <defs>
    <clipPath id="clip0_81_149">
      <rect width="20" height="20" fill="white"/>
    </clipPath>
  </defs>
</symbol>

<!-- Chevron Up -->
<symbol id="chevron-up">
  <path d="M5 12.5L10 7.5L15 12.5" stroke="#0EF387" stroke-width="2" stroke-linecap="round" stroke-linejoin="round"/>
</symbol>

<!-- Chevron Down -->
<symbol id="chevron-down">
  <path d="M5 7.5L10 12.5L15 7.5" stroke="#0EF387" stroke-width="2" stroke-linecap="round" stroke-linejoin="round"/>
</symbol>

<!-- User Icon -->
<symbol id="user-icon" fill="none" xmlns="http://www.w3.org/2000/svg">
  <path d="M13.3333 14.5V13.1667C13.3333 12.4594 13.0524 11.7811 12.5523 11.281C12.0522 10.781 11.3739 10.5 10.6667 10.5H5.33334C4.62609 10.5 3.94782 10.781 3.44772 11.281C2.94762 11.7811 2.66667 12.4594 2.66667 13.1667V14.5" 
        stroke-width="1.3" stroke-linecap="round" stroke-linejoin="round"/>
  <path d="M7.99999 7.83333C9.47275 7.83333 10.6667 6.63943 10.6667 5.16667C10.6667 3.69391 9.47275 2.5 7.99999 2.5C6.52724 2.5 5.33333 3.69391 5.33333 5.16667C5.33333 6.63943 6.52724 7.83333 7.99999 7.83333Z" 
        stroke-width="1.3" stroke-linecap="round" stroke-linejoin="round"/>
</symbol>

<!-- Logout Icon -->
<symbol id="logout-icon" fill="none" xmlns="http://www.w3.org/2000/svg">
  <path d="M6 14.5H3.33333C2.97971 14.5 2.64057 14.3595 2.39052 14.1095C2.14048 13.8594 2 13.5203 2 13.1667V3.83333C2 3.47971 2.14048 3.14057 2.39052 2.89052C2.64057 2.64048 2.97971 2.5 3.33333 2.5H6" 
        stroke-width="1.3" stroke-linecap="round" stroke-linejoin="round"/>
  <path d="M10.6667 11.8334L14 8.50002L10.6667 5.16669" 
        stroke-width="1.3" stroke-linecap="round" stroke-linejoin="round"/>
  <path d="M14 8.5H6" stroke-width="1.3" stroke-linecap="round" stroke-linejoin="round"/>
</symbol>

<!-- Invalid Icon -->
<symbol id="invalid-icon" xmlns="http://www.w3.org/2000/svg" width="20" height="20" viewBox="0 0 20 20" fill="none">
  <path d="M0 10C0 4.47656 4.47656 0 10 0C15.5234 0 20 4.47656 20 10C20 15.5234 15.5234 20 10 20C4.47656 20 0 15.5234 0 10ZM6.83594 8.12891L8.67578 9.96484L6.83594 11.8359C6.47266 12.2031 6.47266 12.7969 6.83594 13.1289C7.20312 13.5273 7.79688 13.5273 8.12891 13.1289L9.96484 11.3242L11.8359 13.1289C12.2031 13.5273 12.7969 13.5273 13.1289 13.1289C13.5273 12.7969 13.5273 12.2031 13.1289 11.8359L11.3242 9.96484L13.1289 8.12891C13.5273 7.79688 13.5273 7.20312 13.1289 6.83594C12.7969 6.47266 12.2031 6.47266 11.8359 6.83594L9.96484 8.67578L8.12891 6.83594C7.79688 6.47266 7.20312 6.47266 6.83594 6.83594C6.47266 7.20312 6.47266 7.79688 6.83594 8.12891Z" fill="#E74A3B"/>
</symbol>

<!-- Valid Icon -->
<symbol id="valid-icon" xmlns="http://www.w3.org/2000/svg" width="20" height="20" viewBox="0 0 20 20" fill="none">
  <path d="M0 10C0 4.47656 4.47656 0 10 0C15.5234 0 20 4.47656 20 10C20 15.5234 15.5234 20 10 20C4.47656 20 0 15.5234 0 10ZM14.5234 8.27344C14.9492 7.84766 14.9492 7.15234 14.5234 6.72656C14.0977 6.30078 13.4023 6.30078 12.9766 6.72656L8.75 10.9531L7.02344 9.22656C6.59766 8.80078 5.90234 8.80078 5.47656 9.22656C5.05078 9.65234 5.05078 10.3477 5.47656 10.7734L7.97656 13.2734C8.40234 13.6992 9.09766 13.6992 9.52344 13.2734L14.5234 8.27344Z" fill="#097B45"/>
</symbol>

<!-- Calendar Icon -->
<symbol id="calendar-icon" xmlns="http://www.w3.org/2000/svg" width="20" height="20" viewBox="0 0 20 20" fill="none">
  <path d="M15.8333 3.33337H4.16667C3.24619 3.33337 2.5 4.07957 2.5 5.00004V16.6667C2.5 17.5872 3.24619 18.3334 4.16667 18.3334H15.8333C16.7538 18.3334 17.5 17.5872 17.5 16.6667V5.00004C17.5 4.07957 16.7538 3.33337 15.8333 3.33337Z" stroke="#FAFAFA" stroke-width="1.5" stroke-linecap="round" stroke-linejoin="round"/>
  <path d="M13.3333 1.66663V4.99996" stroke="#FAFAFA" stroke-width="1.5" stroke-linecap="round" stroke-linejoin="round"/>
  <path d="M6.66666 1.66663V4.99996" stroke="#FAFAFA" stroke-width="1.5" stroke-linecap="round" stroke-linejoin="round"/>
  <path d="M2.5 8.33337H17.5" stroke="#FAFAFA" stroke-width="1.5" stroke-linecap="round" stroke-linejoin="round"/>
</symbol>

<!-- Clock Icon -->
<symbol id="clock-icon" xmlns="http://www.w3.org/2000/svg" width="20" height="20" viewBox="0 0 20 20" fill="none">
  <g clip-path="url(#clip0_29_43)">
    <path d="M10 18.3333C14.6024 18.3333 18.3333 14.6023 18.3333 9.99996C18.3333 5.39759 14.6024 1.66663 10 1.66663C5.39762 1.66663 1.66666 5.39759 1.66666 9.99996C1.66666 14.6023 5.39762 18.3333 10 18.3333Z" stroke="#FAFAFA" stroke-width="1.5" stroke-linecap="round" stroke-linejoin="round"/>
    <path d="M10 5V10L13.3333 11.6667" stroke="#FAFAFA" stroke-width="1.5" stroke-linecap="round" stroke-linejoin="round"/>
  </g>
  <defs>
    <clipPath id="clip0_29_43">
      <rect width="20" height="20" fill="white"/>
    </clipPath>
  </defs>
</symbol>

<!-- Close Icon -->
<symbol id="close-icon" xmlns="http://www.w3.org/2000/svg" width="24" height="24" viewBox="0 0 24 24" fill="none">
  <path d="M18 6L6 18" stroke="#FAFAFA" stroke-width="2" stroke-linecap="round" stroke-linejoin="round"/>
  <path d="M6 6L18 18" stroke="#FAFAFA" stroke-width="2" stroke-linecap="round" stroke-linejoin="round"/>
</symbol>

<!-- Select Icon -->
<symbol id="select-icon" xmlns="http://www.w3.org/2000/svg" width="16" height="16" viewBox="0 0 16 16" fill="none">
  <path d="M13.3334 4L6.00002 11.3333L2.66669 8" stroke="#0EF387" stroke-width="1.5" stroke-linecap="round" stroke-linejoin="round"/>
</symbol>

<!-- Delete Icon -->
<symbol id="delete-icon" xmlns="http://www.w3.org/2000/svg" width="16" height="16" viewBox="0 0 16 16" fill="none">
  <path d="M2 4H3.33333H14" stroke="#0EF387" stroke-width="1.5" stroke-linecap="round" stroke-linejoin="round"/>
  <path d="M12.6667 4.00004V13.3334C12.6667 13.687 12.5262 14.0261 12.2762 14.2762C12.0261 14.5262 11.687 14.6667 11.3333 14.6667H4.66668C4.31306 14.6667 3.97392 14.5262 3.72387 14.2762C3.47382 14.0261 3.33334 13.687 3.33334 13.3334V4.00004M5.33334 4.00004V2.66671C5.33334 2.31309 5.47382 1.97395 5.72387 1.7239C5.97392 1.47385 6.31306 1.33337 6.66668 1.33337H9.33335C9.68697 1.33337 10.0261 1.47385 10.2762 1.7239C10.5262 1.97395 10.6667 2.31309 10.6667 2.66671V4.00004" stroke="#0EF387" stroke-width="1.5" stroke-linecap="round" stroke-linejoin="round"/>
  <path d="M6.66666 7.33337V11.3334" stroke="#0EF387" stroke-width="1.5" stroke-linecap="round" stroke-linejoin="round"/>
  <path d="M9.33334 7.33337V11.3334" stroke="#0EF387" stroke-width="1.5" stroke-linecap="round" stroke-linejoin="round"/>
</symbol>

<!-- Edit Icon -->
<symbol id="edit-icon" xmlns="http://www.w3.org/2000/svg" width="16" height="16" viewBox="0 0 16 16" fill="none">
  <g clip-path="url(#clip0_118_2952)">
    <path d="M11.3333 2.00004C11.5084 1.82494 11.7163 1.68605 11.9451 1.59129C12.1739 1.49653 12.4191 1.44775 12.6667 1.44775C12.9143 1.44775 13.1595 1.49653 13.3883 1.59129C13.617 1.68605 13.8249 1.82494 14 2.00004C14.1751 2.17513 14.314 2.383 14.4088 2.61178C14.5035 2.84055 14.5523 3.08575 14.5523 3.33337C14.5523 3.58099 14.5035 3.82619 14.4088 4.05497C14.314 4.28374 14.1751 4.49161 14 4.6667L5.00001 13.6667L1.33334 14.6667L2.33334 11L11.3333 2.00004Z" stroke="#0EF387" stroke-width="1.5" stroke-linecap="round" stroke-linejoin="round"/>
  </g>
  <defs>
    <clipPath id="clip0_118_2952">
      <rect width="16" height="16" fill="white"/>
    </clipPath>
  </defs>
</symbol>

<!-- Search Icon -->
<symbol id="search-icon" xmlns="http://www.w3.org/2000/svg" width="20" height="20" viewBox="0 0 20 20" fill="none">
  <path d="M9.16667 15.8333C12.8486 15.8333 15.8333 12.8486 15.8333 9.16667C15.8333 5.48477 12.8486 2.5 9.16667 2.5C5.48477 2.5 2.5 5.48477 2.5 9.16667C2.5 12.8486 5.48477 15.8333 9.16667 15.8333Z" stroke="#0EF387" stroke-width="1.5" stroke-linecap="round" stroke-linejoin="round"/>
  <path d="M17.5 17.5L13.875 13.875" stroke="#0EF387" stroke-width="1.5" stroke-linecap="round" stroke-linejoin="round"/>
</symbol>

<!-- Calendar Green Icon -->
<symbol id="calendar-g-icon" xmlns="http://www.w3.org/2000/svg" width="20" height="20" viewBox="0 0 20 20" fill="none">
  <path d="M15.8333 3.33337H4.16667C3.24619 3.33337 2.5 4.07957 2.5 5.00004V16.6667C2.5 17.5872 3.24619 18.3334 4.16667 18.3334H15.8333C16.7538 18.3334 17.5 17.5872 17.5 16.6667V5.00004C17.5 4.07957 16.7538 3.33337 15.8333 3.33337Z" stroke="#0EF387" stroke-width="1.5" stroke-linecap="round" stroke-linejoin="round"/>
  <path d="M13.3333 1.66663V4.99996" stroke="#0EF387" stroke-width="1.5" stroke-linecap="round" stroke-linejoin="round"/>
  <path d="M6.66675 1.66663V4.99996" stroke="#0EF387" stroke-width="1.5" stroke-linecap="round" stroke-linejoin="round"/>
  <path d="M2.5 8.33337H17.5" stroke="#0EF387" stroke-width="1.5" stroke-linecap="round" stroke-linejoin="round"/>
</symbol>

</svg>