<svg xmlns="http://www.w3.org/2000/svg">

<!-- Arrow Up -->
<symbol id="arrow-up">
  <path d="M12.7618 0.856683C12.6826 0.310102 12.1753 -0.0688157 11.6288 0.0103471L2.7217 1.30039C2.17512 1.37955 1.7962 1.88681 1.87536 2.4334C1.95453 2.97998 2.46179 3.3589 3.00837 3.27973L10.9258 2.13303L12.0725 10.0504C12.1516 10.597 12.6589 10.9759 13.2055 10.8968C13.7521 10.8176 14.131 10.3103 14.0518 9.76375L12.7618 0.856683ZM1.80116 16.0193L12.5733 1.59847L10.9709 0.401571L0.19884 14.8224L1.80116 16.0193Z" fill="#0C0D0D"/>
</symbol>

<!-- Show Eye -->
<symbol id="show-eye">
  <path d="M0.833252 10C0.833252 10 4.16659 3.33337 9.99992 3.33337C15.8333 3.33337 19.1666 10 19.1666 10C19.1666 10 15.8333 16.6667 9.99992 16.6667C4.16659 16.6667 0.833252 10 0.833252 10Z" stroke="#FAFAFA" stroke-width="1.5" stroke-linecap="round" stroke-linejoin="round"/>
  <path d="M10 12.5C11.3807 12.5 12.5 11.3807 12.5 10C12.5 8.61929 11.3807 7.5 10 7.5C8.61929 7.5 7.5 8.61929 7.5 10C7.5 11.3807 8.61929 12.5 10 12.5Z" stroke="#FAFAFA" stroke-width="1.5" stroke-linecap="round" stroke-linejoin="round"/>
</symbol>

<!-- Close Eye -->
<symbol id="close-eye">
  <g clip-path="url(#clip0_81_149)">
    <path d="M14.9499 14.9499C13.5254 16.0358 11.7908 16.6373 9.99992 16.6666C4.16659 16.6666 0.833252 9.99994 0.833252 9.99994C1.86983 8.06819 3.30753 6.38045 5.04992 5.04994M8.24992 3.53327C8.82353 3.39901 9.41081 3.33189 9.99992 3.33327C15.8333 3.33327 19.1666 9.99994 19.1666 9.99994C18.6607 10.9463 18.0575 11.8372 17.3666 12.6583M11.7666 11.7666C11.5377 12.0122 11.2617 12.2092 10.955 12.3459C10.6484 12.4825 10.3173 12.556 9.98166 12.5619C9.64599 12.5678 9.31256 12.5061 9.00126 12.3803C8.68997 12.2546 8.40719 12.0675 8.16979 11.8301C7.9324 11.5927 7.74525 11.3099 7.61951 10.9986C7.49377 10.6873 7.43202 10.3539 7.43795 10.0182C7.44387 9.68252 7.51734 9.35148 7.65398 9.04481C7.79062 8.73815 7.98763 8.46215 8.23325 8.23327" stroke="#FAFAFA" stroke-width="1.5" stroke-linecap="round" stroke-linejoin="round"/>
    <path d="M0.833252 0.833374L19.1666 19.1667" stroke="#FAFAFA" stroke-width="1.5" stroke-linecap="round" stroke-linejoin="round"/>
  </g>
  <defs>
    <clipPath id="clip0_81_149">
      <rect width="20" height="20" fill="white"/>
    </clipPath>
  </defs>
</symbol>

</svg>